<?xml version="1.0" encoding="utf-8"?>
<svg id="master-artboard" viewBox="0 0 155 41" version="1.1" xmlns="http://www.w3.org/2000/svg" x="0px" y="0px" style="enable-background:new 0 0 1400 980;" width="155px" height="41px"><defs><style id="ee-google-fonts">@import url(https://fonts.googleapis.com/css?family=Antic+Slab:400);</style></defs><rect id="ee-background" x="0" y="0" width="155" height="41" style="fill: white; fill-opacity: 0; pointer-events: none;"/><path d="M 48.95055389404297 0.5200004577636719 L 47.15055465698242 0.5200004577636719 L 47.15055465698242 -0.7999992370605469 L 52.00055694580078 -0.7999992370605469 L 52.00055694580078 0.5200004577636719 L 50.5805549621582 0.5200004577636719 L 50.5805549621582 16 C 50.633888244628906 17.920000076293945 49.48388671875 19.90333366394043 47.13055419921875 21.950000762939453 L 46.36055374145508 21.020000457763672 C 47.03388977050781 20.380001068115234 47.63722229003906 19.610000610351562 48.170555114746094 18.709999084472656 C 48.71055603027344 17.816667556762695 48.97055435180664 16.913333892822266 48.95055389404297 16 L 48.95055389404297 0.5200004577636719 ZM 56.123775482177734 16.100000381469727 C 53.997108459472656 16.100000381469727 52.86711120605469 15.260000228881836 52.7337760925293 13.579999923706055 C 52.72044372558594 13.466667175292969 52.713775634765625 13.353333473205566 52.713775634765625 13.239999771118164 C 52.713775634765625 11.893333435058594 53.520442962646484 10.996665954589844 55.1337776184082 10.550000190734863 C 56.033775329589844 10.329999923706055 57.76377868652344 10.073333740234375 60.32377624511719 9.780000686645508 L 60.32377624511719 7.939999580383301 C 60.32377624511719 6.193333625793457 59.41044235229492 5.319999694824219 57.583778381347656 5.319999694824219 C 56.270442962646484 5.3333330154418945 54.88044357299805 5.636666297912598 53.41377639770508 6.229999542236328 L 53.00377655029297 5.199999809265137 L 53.243778228759766 5.100000381469727 C 54.49044418334961 4.560000419616699 55.44044494628906 4.233333587646484 56.09377670288086 4.119999885559082 C 56.75377655029297 4.006667137145996 57.2337760925293 3.946666717529297 57.533775329589844 3.939999580383301 C 57.8404426574707 3.933333396911621 58.1337776184082 3.936666488647461 58.41377639770508 3.9499998092651367 C 58.69377517700195 3.9700002670288086 59.05710983276367 4.043333053588867 59.50377655029297 4.170000076293945 C 59.950443267822266 4.296667098999023 60.3404426574707 4.476666450500488 60.67377471923828 4.710000038146973 C 61.00044250488281 4.943333625793457 61.283775329589844 5.289999961853027 61.52377700805664 5.75 C 61.76377868652344 6.216666221618652 61.8837776184082 6.770000457763672 61.8837776184082 7.409999847412109 L 61.8837776184082 14.800000190734863 L 63.7337760925293 14.800000190734863 L 63.7337760925293 16 L 60.563777923583984 16 L 60.32377624511719 15.09000015258789 C 58.8837776184082 15.763333320617676 57.4837760925293 16.100000381469727 56.123775482177734 16.100000381469727 M 56.553775787353516 14.989999771118164 C 57.76710891723633 14.989999771118164 59.02377700805664 14.720000267028809 60.32377624511719 14.180000305175781 L 60.32377624511719 10.739999771118164 C 57.92377471923828 10.819999694824219 56.370445251464844 10.979999542236328 55.66377639770508 11.219999313354492 C 55.123775482177734 11.366666793823242 54.74044418334961 11.626667022705078 54.51377487182617 12 C 54.287109375 12.380000114440918 54.17377471923828 12.680000305175781 54.17377471923828 12.899999618530273 C 54.17377471923828 13.126667022705078 54.17377471923828 13.279999732971191 54.17377471923828 13.359999656677246 C 54.22711181640625 13.933333396911621 54.47711181640625 14.350000381469727 54.92377471923828 14.609999656677246 C 55.37044143676758 14.863333702087402 55.91377639770508 14.989999771118164 56.553775787353516 14.989999771118164 ZM 66.67613220214844 15.109999656677246 C 66.11613464355469 14.74333381652832 65.66613006591797 14.16333293914795 65.32613372802734 13.369999885559082 C 64.97946166992188 12.576666831970215 64.8061294555664 11.613332748413086 64.8061294555664 10.479999542236328 C 64.8061294555664 8.386667251586914 65.3427963256836 6.7866668701171875 66.41613006591797 5.680000305175781 C 67.5494613647461 4.493332862854004 68.84613037109375 3.8999996185302734 70.3061294555664 3.8999996185302734 C 71.199462890625 3.8999996185302734 72.10946655273438 4.133333206176758 73.0361328125 4.600000381469727 L 73.0361328125 -0.7999992370605469 L 71.42613220214844 -0.7999992370605469 L 71.42613220214844 -2 L 74.59613037109375 -2 L 74.59613037109375 14.800000190734863 L 76.44612884521484 14.800000190734863 L 76.44612884521484 16 L 73.27613067626953 16 L 73.08612823486328 15.229999542236328 C 72.17279815673828 15.8100004196167 71.12612915039062 16.100000381469727 69.94612884521484 16.100000381469727 C 68.75946807861328 16.100000381469727 67.66946411132812 15.770000457763672 66.67613220214844 15.109999656677246 M 73.0361328125 14.059999465942383 L 73.0361328125 5.630000114440918 C 72.30279541015625 5.409999847412109 71.60613250732422 5.300000190734863 70.94612884521484 5.300000190734863 C 69.57279968261719 5.300000190734863 68.46613311767578 5.75 67.62612915039062 6.649999618530273 C 66.7861328125 7.556666374206543 66.36613464355469 8.826666831970215 66.36613464355469 10.460000038146973 C 66.36613464355469 11.319999694824219 66.48946380615234 12.050000190734863 66.73612976074219 12.649999618530273 C 66.98279571533203 13.25 67.31613159179688 13.693333625793457 67.73612976074219 13.979999542236328 C 68.45613098144531 14.460000038146973 69.29613494873047 14.699999809265137 70.25613403320312 14.699999809265137 C 71.21613311767578 14.699999809265137 72.1427993774414 14.486666679382324 73.0361328125 14.059999465942383 ZM 86.92322540283203 14.609999656677246 C 85.46989440917969 15.583333015441895 84.09322357177734 16.06999969482422 82.79322814941406 16.06999969482422 C 82.25322723388672 16.06999969482422 81.61322784423828 15.933333396911621 80.87322235107422 15.65999984741211 C 80.39322662353516 15.486666679382324 80.00989532470703 15.15666675567627 79.72322845458984 14.670000076293945 C 79.43656158447266 14.183333396911621 79.29322814941406 13.569999694824219 79.29322814941406 12.829999923706055 L 79.29322814941406 5.199999809265137 L 77.61322784423828 5.199999809265137 L 77.61322784423828 4 L 80.85322570800781 4 L 80.85322570800781 12.350000381469727 C 80.85322570800781 12.90999984741211 80.97322845458984 13.369999885559082 81.21322631835938 13.729999542236328 C 81.4532241821289 14.09000015258789 81.75656127929688 14.326666831970215 82.12322235107422 14.440000534057617 C 82.72988891601562 14.633333206176758 83.21989440917969 14.713333129882812 83.59322357177734 14.680000305175781 C 84.55322265625 14.666666984558105 85.66322326660156 14.323333740234375 86.92322540283203 13.649999618530273 L 86.92322540283203 5.199999809265137 L 85.24322509765625 5.199999809265137 L 85.24322509765625 4 L 88.48322296142578 4 L 88.48322296142578 14.800000190734863 L 90.33322143554688 14.800000190734863 L 90.33322143554688 16 L 87.16322326660156 16 L 86.92322540283203 14.609999656677246 ZM 91.76632690429688 18.5 C 91.76632690429688 17.059999465942383 92.62299346923828 15.793333053588867 94.3363265991211 14.699999809265137 C 93.6629867553711 14.220000267028809 93.32632446289062 13.649999618530273 93.32632446289062 12.989999771118164 C 93.32632446289062 12.323333740234375 93.61632537841797 11.783332824707031 94.19632720947266 11.369999885559082 C 93.00965881347656 10.789999961853027 92.41632080078125 9.619999885559082 92.41632080078125 7.859999656677246 C 92.41632080078125 6.633333206176758 92.87965393066406 5.6666669845581055 93.80632019042969 4.960000038146973 C 94.73965454101562 4.25333309173584 95.92632293701172 3.8999996185302734 97.36632537841797 3.8999996185302734 C 97.82632446289062 3.8999996185302734 98.29632568359375 3.939999580383301 98.77632141113281 4.020000457763672 L 103.28632354736328 3.8999996185302734 L 103.24632263183594 4.819999694824219 L 100.62632751464844 4.819999694824219 C 101.5063247680664 5.473333358764648 101.94631958007812 6.456666946411133 101.94631958007812 7.770000457763672 C 101.94631958007812 9.083333969116211 101.5063247680664 10.100000381469727 100.62632751464844 10.819999694824219 C 99.74632263183594 11.539999961853027 98.60965728759766 11.899999618530273 97.21632385253906 11.899999618530273 C 96.32299041748047 11.899999618530273 95.57965850830078 11.819999694824219 94.98632049560547 11.65999984741211 C 94.67965698242188 11.946666717529297 94.52632141113281 12.313333511352539 94.52632141113281 12.760000228881836 C 94.52632141113281 13.206666946411133 94.80299377441406 13.553333282470703 95.3563232421875 13.800000190734863 C 95.90966033935547 14.053333282470703 96.62299346923828 14.239999771118164 97.49632263183594 14.359999656677246 C 98.36965942382812 14.479999542236328 99.0063247680664 14.583333015441895 99.40632629394531 14.670000076293945 C 99.80632019042969 14.75666618347168 100.2696533203125 14.896666526794434 100.79632568359375 15.09000015258789 C 101.32299041748047 15.283333778381348 101.74632263183594 15.50666618347168 102.06632232666016 15.760000228881836 C 102.81965637207031 16.386667251586914 103.19631958007812 17.219999313354492 103.19631958007812 18.260000228881836 C 103.19631958007812 18.979999542236328 103.02632141113281 19.593334197998047 102.68632507324219 20.100000381469727 C 102.35298919677734 20.613332748413086 101.88965606689453 21.00666618347168 101.29632568359375 21.280000686645508 C 100.20965576171875 21.760000228881836 98.91299438476562 22 97.40632629394531 22 C 95.40632629394531 22 93.96632385253906 21.656665802001953 93.0863265991211 20.969999313354492 C 92.2063217163086 20.28333282470703 91.76632690429688 19.459999084472656 91.76632690429688 18.5 M 93.32632446289062 18.329999923706055 C 93.32632446289062 18.983333587646484 93.64632415771484 19.52666664123535 94.28632354736328 19.959999084472656 C 94.92632293701172 20.393333435058594 95.90299224853516 20.610000610351562 97.21632385253906 20.610000610351562 C 100.16299438476562 20.610000610351562 101.63632202148438 19.8266658782959 101.63632202148438 18.260000228881836 C 101.63632202148438 17.47333335876465 101.28298950195312 16.913333892822266 100.57632446289062 16.579999923706055 C 99.96965789794922 16.273332595825195 99.2996597290039 16.046667098999023 98.56632232666016 15.899999618530273 C 96.99298858642578 15.680000305175781 95.86299133300781 15.433333396911621 95.17632293701172 15.15999984741211 C 93.9429931640625 16.16666603088379 93.32632446289062 17.22333335876465 93.32632446289062 18.329999923706055 M 97.28632354736328 5.180000305175781 C 96.2996597290039 5.180000305175781 95.4996566772461 5.4066667556762695 94.88632202148438 5.859999656677246 C 94.27965545654297 6.313333511352539 93.97632598876953 6.993332862854004 93.97632598876953 7.899999618530273 C 93.97632598876953 8.80666732788086 94.2129898071289 9.486666679382324 94.68632507324219 9.940000534057617 C 95.15966033935547 10.393333435058594 95.91632080078125 10.619999885559082 96.9563217163086 10.619999885559082 C 97.99632263183594 10.619999885559082 98.81632232666016 10.360000610351562 99.41632080078125 9.84000015258789 C 100.01632690429688 9.319999694824219 100.31632232666016 8.613332748413086 100.31632232666016 7.720000267028809 C 100.31632232666016 6.026666641235352 99.30632019042969 5.180000305175781 97.28632354736328 5.180000305175781 ZM 107.73694610595703 16.100000381469727 C 105.61027526855469 16.100000381469727 104.48027801513672 15.260000228881836 104.3469467163086 13.579999923706055 C 104.33361053466797 13.466667175292969 104.32694244384766 13.353333473205566 104.32694244384766 13.239999771118164 C 104.32694244384766 11.893333435058594 105.13361358642578 10.996665954589844 106.74694061279297 10.550000190734863 C 107.64694213867188 10.329999923706055 109.37694549560547 10.073333740234375 111.93694305419922 9.780000686645508 L 111.93694305419922 7.939999580383301 C 111.93694305419922 6.193333625793457 111.02361297607422 5.319999694824219 109.19694519042969 5.319999694824219 C 107.88361358642578 5.3333330154418945 106.49360656738281 5.636666297912598 105.02694702148438 6.229999542236328 L 104.616943359375 5.199999809265137 L 104.85694122314453 5.100000381469727 C 106.10360717773438 4.560000419616699 107.0536117553711 4.233333587646484 107.70693969726562 4.119999885559082 C 108.366943359375 4.006667137145996 108.8469467163086 3.946666717529297 109.14694213867188 3.939999580383301 C 109.45361328125 3.933333396911621 109.74694061279297 3.936666488647461 110.02694702148438 3.9499998092651367 C 110.30694580078125 3.9700002670288086 110.67027282714844 4.043333053588867 111.116943359375 4.170000076293945 C 111.56361389160156 4.296667098999023 111.95361328125 4.476666450500488 112.28694152832031 4.710000038146973 C 112.61360931396484 4.943333625793457 112.89694213867188 5.289999961853027 113.13694763183594 5.75 C 113.37694549560547 6.216666221618652 113.49694061279297 6.770000457763672 113.49694061279297 7.409999847412109 L 113.49694061279297 14.800000190734863 L 115.34693908691406 14.800000190734863 L 115.34693908691406 16 L 112.17694091796875 16 L 111.93694305419922 15.09000015258789 C 110.49694061279297 15.763333320617676 109.0969467163086 16.100000381469727 107.73694610595703 16.100000381469727 M 108.16694641113281 14.989999771118164 C 109.38027954101562 14.989999771118164 110.6369400024414 14.720000267028809 111.93694305419922 14.180000305175781 L 111.93694305419922 10.739999771118164 C 109.53694152832031 10.819999694824219 107.98361206054688 10.979999542236328 107.27694702148438 11.219999313354492 C 106.73694610595703 11.366666793823242 106.35360717773438 11.626667022705078 106.12694549560547 12 C 105.90027618408203 12.380000114440918 105.78694152832031 12.680000305175781 105.78694152832031 12.899999618530273 C 105.78694152832031 13.126667022705078 105.78694152832031 13.279999732971191 105.78694152832031 13.359999656677246 C 105.84027862548828 13.933333396911621 106.09027862548828 14.350000381469727 106.53694152832031 14.609999656677246 C 106.98361206054688 14.863333702087402 107.52694702148438 14.989999771118164 108.16694641113281 14.989999771118164 ZM 119.42709350585938 14.800000190734863 L 121.42709350585938 14.800000190734863 L 121.42709350585938 16 L 116.38709259033203 16 L 116.38709259033203 14.800000190734863 L 117.8670883178711 14.800000190734863 L 117.8670883178711 5.199999809265137 L 116.26708984375 5.199999809265137 L 116.26708984375 4 L 119.42709350585938 4 L 119.42709350585938 6.899999618530273 C 120.69375610351562 5.046667098999023 121.93375396728516 4.103333473205566 123.14708709716797 4.069999694824219 C 123.24708557128906 4.069999694824219 123.34375762939453 4.069999694824219 123.43708801269531 4.069999694824219 L 124.7870864868164 4.239999771118164 L 124.15708923339844 5.680000305175781 C 123.85708618164062 5.533333778381348 123.46708679199219 5.460000038146973 122.98709106445312 5.460000038146973 C 121.83375549316406 5.479999542236328 120.64708709716797 6.313333511352539 119.42709350585938 7.960000038146973 L 119.42709350585938 14.800000190734863 ZM 133.84222412109375 16 L 133.84222412109375 14.800000190734863 L 135.30223083496094 14.800000190734863 L 135.30223083496094 7.789999961853027 C 135.30223083496094 7.229999542236328 135.18556213378906 6.773333549499512 134.9522247314453 6.420000076293945 C 134.72557067871094 6.073333740234375 134.42556762695312 5.8433332443237305 134.05223083496094 5.729999542236328 C 133.445556640625 5.523333549499512 132.9522247314453 5.433333396911621 132.57223510742188 5.460000038146973 C 131.5322265625 5.493332862854004 130.38555908203125 5.863333702087402 129.13223266601562 6.569999694824219 L 129.13223266601562 14.800000190734863 L 130.9622344970703 14.800000190734863 L 130.9622344970703 16 L 126.11222839355469 16 L 126.11222839355469 14.800000190734863 L 127.57222747802734 14.800000190734863 L 127.57222747802734 -0.7999992370605469 L 125.97222900390625 -0.7999992370605469 L 125.97222900390625 -2 L 129.13223266601562 -2 L 129.13223266601562 5.489999771118164 C 131.2322235107422 4.050000190734863 133.12889099121094 3.6000003814697266 134.82223510742188 4.140000343322754 C 135.20889282226562 4.25333309173584 135.542236328125 4.420000076293945 135.82223510742188 4.640000343322754 C 136.10223388671875 4.853333473205566 136.34556579589844 5.176666259765625 136.55223083496094 5.609999656677246 C 136.75889587402344 6.043333053588867 136.8622283935547 6.563333511352539 136.8622283935547 7.170000076293945 L 136.8622283935547 14.800000190734863 L 138.69223022460938 14.800000190734863 L 138.69223022460938 16 L 133.84222412109375 16 Z" transform="matrix(1.5264369249343872, 0, 0, 1.5264369249343872, -62.28718185424805, -31.239364624023438)" style="fill: rgb(51, 49, 48); white-space: pre; color: rgb(45, 51, 11);"/></svg>